<svg enable-background="new 0 0 24 24" height="512" viewBox="0 0 24 24" width="512" xmlns="http://www.w3.org/2000/svg"><path d="m20.672.75h-17.344c-1.422 0-2.578 1.156-2.578 2.578v17.344c0 1.422 1.156 2.578 2.578 2.578h17.344c1.422 0 2.578-1.156 2.578-2.578v-17.344c0-1.422-1.156-2.578-2.578-2.578z" fill="#000"/><path fill="#f7e116" d="m21.25 24h-18.5c-1.517 0-2.75-1.233-2.75-2.75v-18.5c0-1.517 1.233-2.75 2.75-2.75h18.5c1.517 0 2.75 1.233 2.75 2.75v18.5c0 1.517-1.233 2.75-2.75 2.75zm-18.5-22.5c-.689 0-1.25.561-1.25 1.25v18.5c0 .689.561 1.25 1.25 1.25h18.5c.689 0 1.25-.561 1.25-1.25v-18.5c0-.689-.561-1.25-1.25-1.25z"/><path fill="#f7e116" d="m10.022 18c-.198 0-.389-.078-.529-.219l-5.272-5.25c-.293-.292-.294-.767-.002-1.061.293-.294.768-.294 1.061-.002l4.707 4.687 8.7-9.9c.273-.312.748-.341 1.059-.068.312.273.342.747.068 1.059l-9.228 10.5c-.137.154-.332.247-.538.254-.009 0-.018 0-.026 0z"/></svg>